<svg width="19" height="11" viewBox="0 0 19 11" fill="none" xmlns="http://www.w3.org/2000/svg">
<path d="M9.39505 10.6592C9.06759 10.6558 8.7532 10.5223 8.51389 10.285L1.15796 2.42455C0.924259 2.17643 0.792969 1.83992 0.792969 1.48903C0.792969 1.13815 0.924259 0.801633 1.15796 0.553519C1.39165 0.305405 1.70862 0.166016 2.03912 0.166016C2.36961 0.166016 2.68658 0.305405 2.92027 0.553519L9.39206 7.42453L15.9136 0.553519C16.1473 0.305405 16.4643 0.166016 16.7948 0.166016C17.1253 0.166016 17.4423 0.305405 17.676 0.553519C17.9096 0.801633 18.0409 1.13815 18.0409 1.48903C18.0409 1.83992 17.9096 2.17643 17.676 2.42455L10.2782 10.2808C10.1621 10.403 10.0242 10.4995 9.87253 10.5644C9.72089 10.6294 9.55856 10.6616 9.39505 10.6592V10.6592Z" fill="#BFCDD5"/>
</svg>
