<svg width="18" height="11" viewBox="0 0 18 11" fill="none" xmlns="http://www.w3.org/2000/svg">
<path d="M8.94427 10.536C8.61538 10.5328 8.29961 10.4065 8.05927 10.182L0.671266 2.74595C0.43655 2.51124 0.304688 2.19289 0.304688 1.86095C0.304687 1.52901 0.43655 1.21067 0.671266 0.975954C0.905983 0.741237 1.22433 0.609375 1.55627 0.609375C1.88821 0.609375 2.20655 0.741237 2.44127 0.975954L8.94127 7.47595L15.4913 0.975954C15.726 0.741237 16.0443 0.609375 16.3763 0.609375C16.7082 0.609375 17.0266 0.741237 17.2613 0.975954C17.496 1.21067 17.6278 1.52901 17.6278 1.86095C17.6278 2.19289 17.496 2.51124 17.2613 2.74595L9.83127 10.178C9.71465 10.2936 9.57614 10.3848 9.42383 10.4463C9.27153 10.5078 9.10849 10.5383 8.94427 10.536Z" fill="#7082A4"/>
</svg>
