<svg width="15" height="15" viewBox="0 0 15 15" fill="none" xmlns="http://www.w3.org/2000/svg">
<path fill-rule="evenodd" clip-rule="evenodd" d="M13.2197 0.21967C13.5125 -0.0732233 13.9874 -0.0732233 14.2803 0.21967C14.5732 0.512563 14.5732 0.987437 14.2803 1.28033L8.31065 7.25L14.2803 13.2197C14.5732 13.5126 14.5732 13.9874 14.2803 14.2803C13.9874 14.5732 13.5125 14.5732 13.2197 14.2803L7.24999 8.31066L1.28033 14.2803C0.987436 14.5732 0.512562 14.5732 0.21967 14.2803C-0.0732233 13.9874 -0.073223 13.5126 0.21967 13.2197L6.18933 7.25L0.21967 1.28033C-0.073223 0.987437 -0.073223 0.512563 0.21967 0.21967C0.512563 -0.0732233 0.987436 -0.0732233 1.28033 0.21967L7.24999 6.18934L13.2197 0.21967Z" fill="#7082A4" fill-opacity="0.5"/>
</svg>
